<mxfile host="app.diagrams.net" agent="Mozilla/5.0 (X11; Ubuntu; Linux x86_64; rv:130.0) Gecko/20100101 Firefox/130.0" version="24.7.10">
  <diagram name="Page-1" id="izBeUucO_0Du9adhFIvQ">
    <mxGraphModel dx="964" dy="795" grid="1" gridSize="10" guides="1" tooltips="1" connect="1" arrows="1" fold="1" page="1" pageScale="1" pageWidth="850" pageHeight="1100" math="0" shadow="0">
      <root>
        <mxCell id="0" />
        <mxCell id="1" parent="0" />
        <mxCell id="g65s-tWlrk6P6nK-NufF-23" value="" style="edgeStyle=orthogonalEdgeStyle;rounded=0;orthogonalLoop=1;jettySize=auto;html=1;strokeWidth=3;curved=0;strokeColor=#000000;fontColor=#E6E6E6;fontSize=20;" edge="1" parent="1">
          <mxGeometry relative="1" as="geometry">
            <mxPoint x="985" y="750" as="targetPoint" />
            <Array as="points" />
            <mxPoint x="984.6299999999999" y="220" as="sourcePoint" />
          </mxGeometry>
        </mxCell>
        <mxCell id="g65s-tWlrk6P6nK-NufF-24" value="nn.Conv2d(1, 32, kernel_size=3, stride=2)" style="rounded=1;whiteSpace=wrap;html=1;fontSize=20;fillColor=#FFA6A6;strokeColor=#36393d;" vertex="1" parent="1">
          <mxGeometry x="750" y="240" width="470" height="30" as="geometry" />
        </mxCell>
        <mxCell id="g65s-tWlrk6P6nK-NufF-25" value="nn.Conv2d(32, 64, kernel_size=3, stride=2)" style="rounded=1;whiteSpace=wrap;html=1;fontSize=20;fillColor=#FFA6A6;strokeColor=#36393d;" vertex="1" parent="1">
          <mxGeometry x="750" y="295" width="470" height="30" as="geometry" />
        </mxCell>
        <mxCell id="g65s-tWlrk6P6nK-NufF-26" value="nn.BatchNorm2d(64)" style="rounded=1;whiteSpace=wrap;html=1;fontSize=20;fillColor=#f0a30a;strokeColor=#BD7000;fontColor=#000000;" vertex="1" parent="1">
          <mxGeometry x="855" y="325" width="260" height="30" as="geometry" />
        </mxCell>
        <mxCell id="g65s-tWlrk6P6nK-NufF-27" value="nn.Conv2d(64, 128, kernel_size=3)" style="rounded=1;whiteSpace=wrap;html=1;fontSize=20;fillColor=#FFA6A6;strokeColor=#36393d;" vertex="1" parent="1">
          <mxGeometry x="750" y="410" width="470" height="30" as="geometry" />
        </mxCell>
        <mxCell id="g65s-tWlrk6P6nK-NufF-28" value="nn.Conv2d(16, 1, kernel_size=F)&lt;br style=&quot;font-size: 20px;&quot;&gt;{F=(((D-19)//32)-3) for FCNN dimensions}" style="rounded=1;whiteSpace=wrap;html=1;fontSize=20;fillColor=#FFA6A6;strokeColor=#36393d;" vertex="1" parent="1">
          <mxGeometry x="750" y="670" width="470" height="50" as="geometry" />
        </mxCell>
        <mxCell id="g65s-tWlrk6P6nK-NufF-29" value="&lt;font style=&quot;font-size: 20px;&quot;&gt;INPUT &lt;/font&gt;&lt;font style=&quot;font-size: 20px;&quot;&gt;IMAGE shape = [D,D]&lt;/font&gt;" style="rounded=0;whiteSpace=wrap;html=1;fillColor=#404040;fontColor=#E8E8E8;fontSize=20;" vertex="1" parent="1">
          <mxGeometry x="750" y="180" width="470" height="40" as="geometry" />
        </mxCell>
        <mxCell id="g65s-tWlrk6P6nK-NufF-30" value="&lt;font style=&quot;font-size: 20px;&quot;&gt;nn.MaxPool2d(kernel_size=(2,2), stride=2)&lt;/font&gt;" style="rounded=1;whiteSpace=wrap;html=1;fontSize=20;fillColor=#1BA1E2;strokeColor=#36393d;" vertex="1" parent="1">
          <mxGeometry x="750" y="355" width="470" height="30" as="geometry" />
        </mxCell>
        <mxCell id="g65s-tWlrk6P6nK-NufF-31" value="nn.BatchNorm2d(128)" style="rounded=1;whiteSpace=wrap;html=1;fontSize=20;fillColor=#f0a30a;strokeColor=#BD7000;fontColor=#000000;" vertex="1" parent="1">
          <mxGeometry x="850" y="440" width="260" height="30" as="geometry" />
        </mxCell>
        <mxCell id="g65s-tWlrk6P6nK-NufF-32" value="&lt;font style=&quot;font-size: 20px;&quot;&gt;nn.MaxPool2d(kernel_size=(2,2), stride=2)&lt;/font&gt;" style="rounded=1;whiteSpace=wrap;html=1;fontSize=20;fillColor=#1BA1E2;strokeColor=#36393d;" vertex="1" parent="1">
          <mxGeometry x="750" y="470" width="470" height="30" as="geometry" />
        </mxCell>
        <mxCell id="g65s-tWlrk6P6nK-NufF-33" value="nn.Conv2d(128, 64, kernel_size=3)" style="rounded=1;whiteSpace=wrap;html=1;fontSize=20;fillColor=#FFA6A6;strokeColor=#36393d;" vertex="1" parent="1">
          <mxGeometry x="750" y="530" width="470" height="30" as="geometry" />
        </mxCell>
        <mxCell id="g65s-tWlrk6P6nK-NufF-34" value="&lt;font style=&quot;font-size: 20px;&quot;&gt;nn.MaxPool2d(kernel_size=(2,2), stride=2)&lt;/font&gt;" style="rounded=1;whiteSpace=wrap;html=1;fontSize=20;fillColor=#1BA1E2;strokeColor=#36393d;" vertex="1" parent="1">
          <mxGeometry x="750" y="560" width="470" height="30" as="geometry" />
        </mxCell>
        <mxCell id="g65s-tWlrk6P6nK-NufF-35" value="nn.Conv2d(64, 16, kernel_size=3)" style="rounded=1;whiteSpace=wrap;html=1;fontSize=20;fillColor=#FFA6A6;strokeColor=#36393d;" vertex="1" parent="1">
          <mxGeometry x="750" y="615" width="470" height="30" as="geometry" />
        </mxCell>
      </root>
    </mxGraphModel>
  </diagram>
</mxfile>
